<svg xmlns="http://www.w3.org/2000/svg" viewBox="0 0 500 500" width="500" height="500">
  <defs>
    <linearGradient id="grad3" x1="0%" y1="0%" x2="100%" y2="100%">
      <stop offset="0%" style="stop-color:#FF85B4;stop-opacity:1" />
      <stop offset="100%" style="stop-color:#FF5A96;stop-opacity:1" />
    </linearGradient>
  </defs>
  <rect width="500" height="500" fill="#FFF8F5"/>
  <!-- Cuerpo central -->
  <ellipse cx="250" cy="310" rx="85" ry="105" fill="url(#grad3)"/>
  <!-- Cabeza -->
  <circle cx="250" cy="140" r="70" fill="url(#grad3)"/>
  <!-- Orejas largas (conejo) -->
  <ellipse cx="190" cy="50" rx="25" ry="70" fill="url(#grad3)"/>
  <ellipse cx="310" cy="50" rx="25" ry="70" fill="url(#grad3)"/>
  <!-- Interior orejas -->
  <ellipse cx="190" cy="55" rx="12" ry="50" fill="#FFB3D9"/>
  <ellipse cx="310" cy="55" rx="12" ry="50" fill="#FFB3D9"/>
  <!-- Ojos redondeados kawaii -->
  <circle cx="220" cy="130" r="10" fill="#333"/>
  <circle cx="280" cy="130" r="10" fill="#333"/>
  <circle cx="223" cy="128" r="4" fill="white"/>
  <circle cx="283" cy="128" r="4" fill="white"/>
  <!-- Nariz -->
  <circle cx="250" cy="155" r="6" fill="#FFB3D9"/>
  <!-- Boca -->
  <path d="M 250 160 L 245 168 M 250 160 L 255 168" stroke="#333" stroke-width="2" stroke-linecap="round"/>
  <!-- Patas traseras -->
  <ellipse cx="200" cy="400" rx="35" ry="45" fill="url(#grad3)"/>
  <ellipse cx="300" cy="400" rx="35" ry="45" fill="url(#grad3)"/>
  <!-- Patas delanteras -->
  <circle cx="220" cy="360" r="25" fill="url(#grad3)"/>
  <circle cx="280" cy="360" r="25" fill="url(#grad3)"/>
  <!-- Brillo -->
  <ellipse cx="200" cy="110" rx="20" ry="25" fill="white" opacity="0.25"/>
</svg>
