<svg xmlns="http://www.w3.org/2000/svg" viewBox="0 0 500 500" width="500" height="500">
  <defs>
    <linearGradient id="grad2" x1="0%" y1="0%" x2="100%" y2="100%">
      <stop offset="0%" style="stop-color:#FFD9F0;stop-opacity:1" />
      <stop offset="100%" style="stop-color:#FF99CC;stop-opacity:1" />
    </linearGradient>
  </defs>
  <rect width="500" height="500" fill="#FFF8F5"/>
  <!-- Cuerpo -->
  <ellipse cx="250" cy="290" rx="90" ry="110" fill="url(#grad2)"/>
  <!-- Cabeza -->
  <circle cx="250" cy="130" r="75" fill="url(#grad2)"/>
  <!-- Orejas de gato -->
  <polygon points="200,60 170,20 190,80" fill="url(#grad2)"/>
  <polygon points="300,60 330,20 310,80" fill="url(#grad2)"/>
  <!-- Ojos grandes kawaii -->
  <circle cx="220" cy="120" r="12" fill="#333"/>
  <circle cx="280" cy="120" r="12" fill="#333"/>
  <circle cx="225" cy="115" r="5" fill="white"/>
  <circle cx="285" cy="115" r="5" fill="white"/>
  <!-- Nariz -->
  <polygon points="250,150 245,160 255,160" fill="#FF7AA2"/>
  <!-- Boca -->
  <path d="M 250 160 Q 240 170 230 165" stroke="#333" stroke-width="2" fill="none"/>
  <path d="M 250 160 Q 260 170 270 165" stroke="#333" stroke-width="2" fill="none"/>
  <!-- Patas delanteras -->
  <rect x="190" y="370" width="35" height="50" rx="20" fill="url(#grad2)"/>
  <rect x="275" y="370" width="35" height="50" rx="20" fill="url(#grad2)"/>
  <!-- Detalles -->
  <circle cx="250" cy="160" r="3" fill="white"/>
</svg>
